# xmcd CD database file
#
# Track frame offsets:
#	150
#	26700
#	45730
#	60430
#	92607
#	116985
#	146110
#	165082
#	183977
#	195405
#	208055
#	225632
#	237997
#	266265
#	276662
#
# Disc length: 3965 seconds
#
# Revision: 0
# Processed by: cddbd v1.4PL0 Copyright (c) Steve Scherf et al.
# Submitted via: CDex 1.40Beta8
#
DISCID=d30f7b0f
DTITLE=Shelley Neill - Music Sweet Music
DYEAR=1999
DGENRE=Blues
TTITLE0=Too Soon to Tell
TTITLE1=You Hit The Spot (You're So Special)
TTITLE2=Travlin' Light
TTITLE3=Everything Must Change
TTITLE4=Fever/Comes Love (Something Can Be Done)
TTITLE5=Since I Fell For You
TTITLE6=Is You or Is You Ain't
TTITLE7=Dark Shadows
TTITLE8=For Sentimental Reasons
TTITLE9=Slow Down
TTITLE10=You Are My Suhshine
TTITLE11=I Didn't Know What Time It Was
TTITLE12=Ill Wind
TTITLE13=Blue Moon
TTITLE14=Teach Me Tonight
EXTD=YEAR: 1999 ID3G: 0
EXTT0=
EXTT1=
EXTT2=
EXTT3=
EXTT4=
EXTT5=
EXTT6=
EXTT7=
EXTT8=
EXTT9=
EXTT10=
EXTT11=
EXTT12=
EXTT13=
EXTT14=
PLAYORDER=
